HIERARCHY
ROOT __0
{
	OFFSET 0.0 0.0 0.0
	CHANNELS 0
	JOINT Bone.003
	{
		OFFSET 0.151944 0.004516 -0.037717
		CHANNELS 6 Xposition Yposition Zposition Xrotation Yrotation Zrotation
		JOINT Bone.004
		{
			OFFSET 0.006331 0.024152 -0.508480
			CHANNELS 3 Xrotation Yrotation Zrotation
			JOINT Bone.005
			{
				OFFSET 0.006331 0.031610 -0.264016
				CHANNELS 3 Xrotation Yrotation Zrotation
				JOINT Bone.006
				{
					OFFSET -0.006331 0.031610 -0.264016
					CHANNELS 3 Xrotation Yrotation Zrotation
					JOINT Bone.007
					{
						OFFSET 0.006331 0.032362 -0.270302
						CHANNELS 3 Xrotation Yrotation Zrotation
						End Site
						{
							OFFSET 0.012662 0.066230 -0.553176
						}
					}
				}
				JOINT Bone.008
				{
					OFFSET -0.006331 0.031610 -0.264016
					CHANNELS 3 Xrotation Yrotation Zrotation
					JOINT Bone.010
					{
						OFFSET -0.310218 0.008279 -0.069147
						CHANNELS 3 Xrotation Yrotation Zrotation
						JOINT Bone.011
						{
							OFFSET -0.132951 -0.015052 0.125722
							CHANNELS 3 Xrotation Yrotation Zrotation
							JOINT Bone.012
							{
								OFFSET -0.006331 -0.073004 0.609751
								CHANNELS 3 Xrotation Yrotation Zrotation
								JOINT Bone.013
								{
									OFFSET -0.025324 -0.071498 0.597179
									CHANNELS 3 Xrotation Yrotation Zrotation
									End Site
									{
										OFFSET 0.025324 -0.017310 0.144580
									}
								}
							}
						}
					}
				}
				JOINT Bone.009
				{
					OFFSET -0.006331 0.031610 -0.264016
					CHANNELS 3 Xrotation Yrotation Zrotation
					JOINT Bone.014
					{
						OFFSET 0.322880 0.006774 -0.056575
						CHANNELS 3 Xrotation Yrotation Zrotation
						JOINT Bone.015
						{
							OFFSET 0.151944 -0.012042 0.100577
							CHANNELS 3 Xrotation Yrotation Zrotation
							JOINT Bone.016
							{
								OFFSET 0.018993 -0.077519 0.647467
								CHANNELS 3 Xrotation Yrotation Zrotation
								JOINT Bone.017
								{
									OFFSET 0.000000 -0.065477 0.546890
									CHANNELS 3 Xrotation Yrotation Zrotation
									End Site
									{
										OFFSET 0.012662 -0.022578 0.188583
									}
								}
							}
						}
					}
				}
			}
		}
	}
	JOINT Bone.018
	{
		OFFSET 0.151944 0.004516 -0.037717
		CHANNELS 6 Xposition Yposition Zposition Xrotation Yrotation Zrotation
		JOINT Bone.019
		{
			OFFSET 0.234246 0.005268 -0.044003
			CHANNELS 3 Xrotation Yrotation Zrotation
			JOINT Bone.020
			{
				OFFSET 0.037986 -0.002223 1.083688
				CHANNELS 3 Xrotation Yrotation Zrotation
				JOINT Bone.024
				{
					OFFSET 0.044317 -0.105323 1.039463
					CHANNELS 3 Xrotation Yrotation Zrotation
					End Site
					{
						OFFSET 0.000000 -0.327629 -0.032850
					}
				}
			}
		}
	}
	JOINT Bone.021
	{
		OFFSET 0.151944 0.004516 -0.037717
		CHANNELS 6 Xposition Yposition Zposition Xrotation Yrotation Zrotation
		JOINT Bone.022
		{
			OFFSET -0.234246 0.007526 -0.062861
			CHANNELS 3 Xrotation Yrotation Zrotation
			JOINT Bone.023
			{
				OFFSET 0.069641 -0.000717 1.071116
				CHANNELS 3 Xrotation Yrotation Zrotation
				JOINT Bone.025
				{
					OFFSET 0.050648 -0.104571 1.033177
					CHANNELS 3 Xrotation Yrotation Zrotation
					End Site
					{
						OFFSET 0.000000 -0.329135 -0.020278
					}
				}
			}
		}
	}
}
MOTION
Frames: 6
Frame Time: 0.041667
0.151944 0.004516 -0.037717 3.617417 1.546684 4.533426 -3.323420 1.353542 4.104205 -0.952060 -1.704169 3.485989 -0.202840 1.462851 0.172119 0.037580 0.388363 0.047546 6.164288 -0.366172 1.641618 6.686462 -2.493184 -0.622665 5.960019 -3.126643 -0.864602 3.311058 -1.618090 -0.380745 1.135612 -0.111573 -0.221522 -4.811534 -0.002052 1.633155 -5.078120 0.931713 0.395725 -4.718563 1.273881 0.106942 -2.890989 0.433110 0.091840 -1.563246 -0.444000 0.036179 0.151944 0.004516 -0.037717 -10.069334 -38.271264 -31.740671 18.453575 49.024287 4.694356 -5.519925 5.012970 -2.001568 -9.355809 -0.364228 1.319034 0.151944 0.004516 -0.037717 -7.564088 42.589351 -0.916587 -9.988021 -40.408041 -6.479645 -8.210152 -4.989147 -0.702214 4.954758 0.003127 -0.135949 
0.151944 0.004516 -0.037717 3.623179 1.535307 4.401380 -3.309514 1.346620 3.980139 -0.935746 -1.745173 3.361170 -0.202839 1.462850 0.172119 0.037580 0.388363 0.047546 5.950511 -0.300376 1.575495 6.464138 -2.464230 -0.657123 5.754172 -3.137447 -0.877657 3.196366 -1.628809 -0.384297 1.113128 -0.122544 -0.218803 -4.589636 -0.154446 1.554702 -4.851524 0.930354 0.376520 -4.506207 1.329154 0.113362 -2.775521 0.464257 0.094740 -1.533071 -0.437026 0.035474 0.151944 0.004516 -0.037717 -9.850444 -37.691853 -31.511945 17.762329 48.134375 5.737918 -6.138943 5.023103 -1.921037 -9.355808 -0.364227 1.319033 0.151944 0.004516 -0.037717 -6.637917 38.894017 -0.359813 -9.073696 -37.009920 -6.635958 -14.308219 -4.736804 -0.905489 4.954755 0.003126 -0.135949 
0.151944 0.004516 -0.037717 3.634912 1.515266 4.185301 -3.287601 1.335614 3.775960 -0.924963 -1.803606 3.158025 -0.202840 1.462851 0.172119 0.037580 0.388363 0.047545 5.611457 -0.197620 1.469149 6.110758 -2.421025 -0.710565 5.427988 -3.140767 -0.893843 3.015399 -1.633689 -0.388679 1.077707 -0.128563 -0.213281 -4.242293 -0.377978 1.431615 -4.495794 0.928684 0.345486 -4.173177 1.364693 0.114695 -2.595011 0.484674 0.095676 -1.485919 -0.432714 0.033464 0.151944 0.004516 -0.037717 -9.562775 -36.834507 -31.153657 16.951493 46.774420 6.771594 -7.052062 5.032426 -1.802741 -9.355808 -0.364229 1.319034 0.151944 0.004516 -0.037717 -5.296623 33.365433 0.654823 -7.703233 -31.928641 -7.011760 -23.656896 -4.311541 -1.161948 4.954756 0.003126 -0.135948 
0.151944 0.004516 -0.037717 3.654307 1.485635 3.888456 -3.258730 1.320927 3.493790 -0.919857 -1.870872 2.880433 -0.202841 1.462850 0.172118 0.037580 0.388363 0.047544 5.161280 -0.063323 1.325914 5.640378 -2.367592 -0.779680 4.995112 -3.138815 -0.912888 2.776403 -1.634610 -0.393750 1.030989 -0.131327 -0.205419 -3.787965 -0.647940 1.270322 -4.028860 0.927120 0.303430 -3.736659 1.391716 0.112687 -2.359219 0.500780 0.095517 -1.424347 -0.429817 0.030436 0.151944 0.004516 -0.037717 -9.269368 -35.787859 -30.683614 16.057543 45.097772 7.753703 -8.162092 5.034750 -1.659933 -9.355810 -0.364228 1.319034 0.151944 0.004516 -0.037717 -3.655329 26.562823 2.173063 -5.970691 -25.672562 -7.694625 -35.456113 -3.724500 -1.381196 4.954758 0.003126 -0.135948 
0.151944 0.004516 -0.037717 3.683014 1.445444 3.514118 -3.223965 1.302942 3.135748 -0.920528 -1.938353 2.532262 -0.202839 1.462851 0.172119 0.037581 0.388363 0.047544 4.614152 0.097221 1.149173 5.067018 -2.307937 -0.861171 4.469146 -3.133773 -0.934523 2.487631 -1.633457 -0.399364 0.974606 -0.132542 -0.195689 -3.245019 -0.939659 1.077026 -3.468658 0.926023 0.251138 -3.213840 1.421451 0.109007 -2.077917 0.518996 0.095096 -1.350921 -0.427095 0.026671 0.151944 0.004516 -0.037717 -9.030137 -34.640790 -30.115441 15.100418 43.259232 8.657530 -9.371531 5.024533 -1.506151 -9.355806 -0.364226 1.319033 0.151944 0.004516 -0.037717 -1.804607 19.121352 4.194564 -3.936932 -18.810119 -8.735222 -48.600706 -3.032981 -1.478045 4.954754 0.003126 -0.135949 
0.151944 0.004516 -0.037717 3.722631 1.393667 3.065558 -3.184368 1.282034 2.703940 -0.926975 -1.997409 2.117374 -0.202839 1.462850 0.172120 0.037581 0.388363 0.047546 3.984221 0.278748 0.942263 4.404664 -2.246084 -0.951825 3.863699 -3.127835 -0.958496 2.157334 -1.632111 -0.405397 0.910199 -0.133905 -0.184560 -2.631671 -1.228407 0.857410 -2.833116 0.925802 0.189395 -2.621909 1.465142 0.105139 -1.760868 0.545751 0.095199 -1.268194 -0.423304 0.022453 0.151944 0.004516 -0.037717 -8.900614 -33.482585 -29.457363 14.085065 41.414668 9.470499 -10.582649 4.997199 -1.355195 -9.355808 -0.364228 1.319033 0.151944 0.004516 -0.037717 0.152258 11.730899 6.667508 -1.649433 -11.958735 -10.139321 -61.735785 -2.337604 -1.414906 4.954755 0.003126 -0.135948 
